<svg xmlns="http://www.w3.org/2000/svg" width="500" height="500"><path fill="#FEEF05" d="M316.109 148.668c4.059 3.34 8 6.799 11.891 10.332-.579 3.218-1.463 4.827-3.8 7.094l-1.714 1.683-1.799 1.723-1.763 1.723q-1.695 1.653-3.4 3.293a131 131 0 0 0-3.79 3.882C310 180 310 180 307.562 180.125c-2.914-1.28-4.163-2.917-6.09-5.39-8.34-9.823-23.134-16.59-35.472-19.735l-3.84-1.059c-28.593-7.43-56.51-1.332-81.828 12.961-2.452 1.544-4.465 2.986-6.633 4.852C171 174 171 174 169 174v2a178 178 0 0 1-3.46 3.488C152.802 191.998 145.205 207.095 140 224c-.36 1.158-.722 2.315-1.094 3.508-6.097 23.43-1.3 49.43 10.094 70.492 7.952 14.06 7.952 14.06 20 24l1.625 2.188c7.037 8.333 17.52 12.677 27.375 16.812l2.82 1.188c14.376 5.364 31 8.14 46.18 5.812q2.019-.204 4.04-.398c14.083-1.596 28.776-6.865 40.507-14.918C294 331 294 331 296 331v-2c1.61-1.656 1.61-1.656 3.75-3.5l2.11-1.844C304 322 304 322 306.14 321.031c2.417-1.34 2.685-2.538 3.86-5.031 1.743-2.28 3.509-4.52 5.312-6.75 14.623-18.473 19.89-37.799 20-61.312l.018-3.535c-.05-5.873-.392-10.857-2.33-16.403-.609-3.72-.743-5.917 1.426-9.078 1.784-2.063 3.637-4.002 5.574-5.922l2.312-2.5C344 209 344 209 346 209v-2c1.531-1.508 1.531-1.508 3.5-3.125l1.969-1.633L353 201c1.84.516 1.84.516 4 2a56 56 0 0 1 2.562 7.75l.634 2.398C368.823 247.489 365.584 282.02 348 313l-1.68 2.977c-4.291 7.125-9.562 13.323-15.04 19.546a135 135 0 0 0-3.237 3.914c-5.93 7.235-13.375 12.33-21.043 17.563l-3.227 2.23c-25.864 16.927-60.612 22.757-90.777 16.618-5.36-1.172-10.683-2.476-15.996-3.848l-2.071-.49C180.442 367.68 165.381 358.523 154 349v-2l-1.773-.824c-18.426-9.73-31.574-36.69-37.77-55.723-1.267-4.123-2.385-8.275-3.457-12.453-.235-.896-.47-1.792-.71-2.715-7.708-31.776.05-65.775 16.71-93.285a119 119 0 0 1 7-10c.694-.895 1.387-1.79 2.102-2.71 6.36-8.073 6.36-8.073 8.898-10.29h2v-2c1.61-1.48 3.291-2.885 5-4.25l3.055-2.441c3.61-2.83 7.222-5.63 10.945-8.309l2-1.488c43.117-30.674 107.959-23.6 148.109 8.156"/><path fill="#FEEF04" d="M378 129c2.878 1.116 5.317 2.439 8 4v2l3 1c2.376 5.105 3.813 9.31 3 15-4.195 8.203-10.851 14.154-17.375 20.5q-3.33 3.26-6.648 6.531l-1.61 1.583c-3.453 3.416-6.69 6.955-9.837 10.656-2.523 2.853-5.322 5.379-8.155 7.917-3.89 3.519-7.689 7.078-11.375 10.813-.73.718-1.46 1.436-2.21 2.176-3.494 3.448-6.918 6.9-10.103 10.637-3.066 3.565-6.307 6.92-9.625 10.25l-1.448 1.462a155 155 0 0 1-8.364 7.725c-4.999 4.334-9.647 9-14.312 13.688l-2.604 2.591c-4.438 4.445-8.742 8.945-12.816 13.727-3.731 4.287-7.807 8.17-12.135 11.846-5.858 5.098-11.19 10.727-16.58 16.31l-2.44 2.483-2.178 2.245c-4.42 3.763-8.963 4.405-14.603 4.32-4.364-.778-7.6-3.245-10.582-6.46v-2h-2v-2h-2c-1.437-1.496-1.437-1.496-3-3.437-2.145-2.715-2.145-2.715-5-4.563v-2l-1.802-.812c-2.216-1.198-3.619-2.391-5.362-4.192l-1.711-1.744-1.75-1.815q-1.735-1.786-3.477-3.566l-1.541-1.596c-1.351-1.391-1.351-1.391-3.357-2.275v-2h-2c-4.64-5.609-9.013-11.548-9.258-19.02.4-3.065 1.607-5.405 3.258-7.98h2l1-3h2v-2c5.176-2.18 9.31-3.899 15-3 6.93 3.675 12.305 8.955 17.688 14.563 6.767 7.155 6.767 7.155 14.312 13.437 3.34-.528 3.34-.528 6-2v-2c1.434-1.41 1.434-1.41 3.438-3.062 5.933-5.05 11.618-10.412 16.5-16.5.68-.805 1.36-1.61 2.062-2.438h2l.773-1.757c1.353-2.473 2.864-4.139 4.852-6.134l2.14-2.148L270 224.75l2.234-2.258 2.141-2.133 1.96-1.954C278 217 278 217 280 217v-2h2v-2c1.434-1.41 1.434-1.41 3.438-3.062 5.628-4.786 11.446-9.764 15.562-15.938h2l.75-1.875c1.487-2.529 2.687-2.843 5.25-4.125l.742-1.668c1.866-3.46 4.588-5.912 7.383-8.644l1.774-1.757a201 201 0 0 1 11.386-10.365c2.428-2.217 4.458-4.7 6.488-7.28L338 157h2v-2a139 139 0 0 1 5-5l3.188-3.312C351 144 351 144 353 144l2-4h2v-2h2v-2h2v-2c5.047-4.538 10.331-6.306 17-5"/><path fill="#FBF36E" d="M378 129c2.878 1.116 5.317 2.439 8 4v2l3 1-1 2-1.8-1.094c-6.61-3.7-11.683-4.55-19.2-3.906v2l-1.996 1.129c-4.295 2.675-7.544 6.202-11.067 9.809l-2.142 2.17q-1.98 2.004-3.951 4.017L346 154l-2.045 2.237C342 158 342 158 339 158c-.235.56-.47 1.121-.71 1.7-1.604 2.86-3.577 4.814-5.915 7.113-.895.88-1.79 1.76-2.71 2.667a156 156 0 0 1-6.915 6.145c-3.25 2.777-5.59 5.737-8.062 9.203-5.046 6.494-11.363 11.99-17.606 17.305-3.463 3.106-6.659 6.477-9.883 9.828C285 214 285 214 282 215v-2c1.434-1.41 1.434-1.41 3.438-3.062 5.628-4.786 11.446-9.764 15.562-15.938h2l.75-1.875c1.487-2.529 2.687-2.843 5.25-4.125l.742-1.668c1.866-3.46 4.588-5.912 7.383-8.644l1.774-1.757a201 201 0 0 1 11.386-10.365c2.428-2.217 4.458-4.7 6.488-7.28L338 157h2v-2a139 139 0 0 1 5-5l3.188-3.312C351 144 351 144 353 144l2-4h2v-2h2v-2h2v-2c5.047-4.538 10.331-6.306 17-5"/><path fill="#FAEF43" d="m278 217 2 1-1.68 1.61-2.195 2.14-2.18 2.11c-1.84 2.024-2.749 3.72-3.945 6.14a75 75 0 0 1-3.687 3.75c-2.59 2.52-5.05 5.048-7.375 7.813-3.66 4.254-7.602 8.215-11.563 12.187l-1.957 1.97C236.11 265 236.11 265 233 265v2c-4.517.366-4.517.366-6.812-1.375C225 264 225 264 225 262l-1.773-.777c-2.42-1.329-3.959-2.788-5.852-4.786-2.42-2.577-2.42-2.577-5.375-4.437v-3c-.572-.235-1.145-.47-1.734-.71-2.783-1.584-4.437-3.49-6.516-5.915l-2.14-2.477L200 238c5.939 0 10.193 6.177 14.203 10.184a742 742 0 0 1 5.052 5.108c3.419 3.474 6.806 6.825 10.745 9.708 3.34-.528 3.34-.528 6-2v-2c1.434-1.41 1.434-1.41 3.438-3.062 5.933-5.05 11.618-10.412 16.5-16.5.68-.805 1.36-1.61 2.062-2.438h2l.769-1.757c1.369-2.494 2.901-4.14 4.926-6.134l2.168-2.148 2.262-2.211 2.285-2.258q2.788-2.753 5.59-5.492"/><path fill="#F9EF3A" d="m198 235 2 2-2.773.367-3.602.508-3.586.492c-3.135.363-3.135.363-5.039 2.633h-3a199 199 0 0 0-1.562 4.125l-.88 2.32c-.986 4.514-.208 7.533 2.255 11.407l2.187 2.773c4.443 5.664 4.443 5.664 5 9.375h2a96 96 0 0 1 3.404 3.342c1.897 1.97 3.848 3.88 5.803 5.795l4.606 4.55 2.388 2.338 2.256 2.237 2.062 2.03C213 293 213 293 213 295l3 1v2l1.75.625c3.064 1.873 4.405 4.345 6.25 7.375a56.5 56.5 0 0 1-7-4v-2h-2v-2h-2c-1.437-1.496-1.437-1.496-3-3.437-2.145-2.715-2.145-2.715-5-4.563v-2l-1.802-.812c-2.216-1.198-3.619-2.391-5.362-4.192l-1.711-1.744-1.75-1.815q-1.735-1.786-3.477-3.566l-1.541-1.596c-1.351-1.391-1.351-1.391-3.357-2.275v-2h-2c-4.64-5.609-9.013-11.548-9.258-19.02.4-3.065 1.607-5.405 3.258-7.98h2l1-3h2v-2c5.238-2.205 9.21-3.579 15-3"/><path fill="#FAEE37" d="M288 336v3c-3 2-3 2-6 2.438-2.962.243-2.962.243-4.25 1.937-2.537 2.356-5.515 3.156-8.75 4.188l-3.75 1.253c-9.15 2.706-18.375 3.598-27.875 3.997l-3.234.193c-6.682.291-11.982-.344-18.141-3.006v-2l-3.312.188C209 348 209 348 207.27 346.488c-.42-.49-.838-.982-1.27-1.488 4.71.374 9.324.835 13.957 1.77 9.35 1.883 17.5 2.523 27.043 1.23l4.133-.43c11.953-1.44 22.168-5.655 32.998-10.791C286 336 286 336 288 336"/><path fill="#FAF04C" d="m382 159 4 1-2.092 2.076a6390 6390 0 0 0-7.777 7.738l-3.349 3.329c-5.605 5.562-11.116 11.116-16.246 17.127-2.53 2.848-5.327 5.378-8.161 7.917-3.89 3.519-7.692 7.076-11.375 10.813l-13 13-2-3c2.313-2.5 2.313-2.5 5-5h3v-3a264 264 0 0 1 5-3l1-3h2l2-4h3l.188-1.687c1.574-4.482 5.628-7.168 9.187-10.125 3.33-2.81 6.107-5.924 8.934-9.231 3.832-4.435 7.618-7.965 12.691-10.957 3.374-3.053 5.83-6.001 8-10"/><path fill="#FAF050" d="M232.889 147.533c2.176.03 4.35.021 6.527.008 9.238.016 17.605 1.127 26.584 3.459v2l1.758.078c5.613.408 8.83 1.416 13.242 4.922l-1 2-3.125-1.25c-6.176-2.31-12.51-4.043-18.875-5.75-.8-.23-1.598-.461-2.422-.7-16.185-4.045-34.377-1.24-50.117 3.212C203 156 203 156 200 155c6.633-8.336 23.171-7.608 32.889-7.467"/><path fill="#FAF150" d="M360 217c10.308 18.616 5.59 47.836 0 67.31a486 486 0 0 1-3 9.69h-1c.43-7.962 1.595-15.567 3.281-23.36 1.522-7.705 1.875-15.055 1.844-22.89l.012-2.969-.004-2.86-.004-2.574c-.124-2.258-.568-4.166-1.129-6.347-.07-2.76-.094-5.492-.062-8.25l.013-2.258q.02-2.745.049-5.492"/><path fill="#FAEF50" d="M141 212h2l-.75 3.438-.54 2.519a139 139 0 0 1-1.733 6.617c-6.303 22.571-3.75 46.147 6.105 67.344C147 294 147 294 147 296h-3c-3.941-7.493-5.966-14.553-7.422-22.812-.501-3.194-.501-3.194-1.578-6.188-.109-2.53-.164-5.032-.168-7.562l-.01-2.263q-.007-2.375-.007-4.75c-.002-2.388-.02-4.776-.04-7.163-.038-10.472.472-20.343 4.225-30.262h2z"/><path fill="#FAED26" d="M330 283c1.104 3.312.881 4.647.188 8l-.52 2.625C329 296 329 296 327 299h-2l-.062 2.438c-1.338 5.08-4.314 8.796-7.938 12.562h-2v2h-2l1 5-2.687.688c-3.753 1.486-5.53 3.454-8.313 6.312h-3l-1 3h-3c0-2 0-2 1.61-3.656l2.14-1.844 2.11-1.844C304 322 304 322 306.14 321.031c2.417-1.34 2.685-2.538 3.86-5.031 1.743-2.28 3.508-4.52 5.313-6.75 6.697-8.437 11.291-15.93 14.687-26.25"/><path fill="#FAF04B" d="M279 265c0 3 0 3-2.344 5.672a305 305 0 0 1-3.156 3.078l-1.531 1.516a178 178 0 0 1-8.77 8.011c-5.803 5.03-11.066 10.614-16.396 16.135l-2.44 2.483-2.178 2.245c-3.914 3.332-7.448 4.12-12.498 3.985l-2.675-.055L225 308l-1-2 3.625-.312c3.96-.483 6.86-1.771 10.375-3.688l2.25-.437c1.94-.406 1.94-.406 2.813-2.438L244 297c1.707-2.032 3.154-3.085 5.5-4.375 2.62-1.443 2.62-1.443 3.883-3.934 1.728-2.875 3.63-5.003 5.992-7.378l2.273-2.325C264 277 264 277 266.457 276.051c3.402-1.406 5.316-3.534 7.856-6.176l2.675-2.758z"/><path fill="#FAF15E" d="m344 209 2 1q-1.402 1.909-2.812 3.813l-1.583 2.144C340 218 340 218 338.417 219.324c-1.915 2.265-1.757 3.6-1.694 6.54l.04 2.995.085 3.239.084 6.806q.093 5.36.205 10.717c.067 3.45.108 6.9.148 10.352l.091 3.195c.069 6.918-.911 12.746-4.376 18.832l-2 1 .367-1.8.508-2.512.492-2.426L333 273l.508-2.327c1.54-7.514 1.793-14.768 1.742-22.423l.023-3.574c-.013-5.973-.283-11.04-2.273-16.676-.609-3.72-.743-5.917 1.426-9.078A103 103 0 0 1 340 213l2.438-2.5z"/><path fill="#FAF04A" d="M378 129c2.878 1.116 5.317 2.439 8 4v2l3 1-1 2-1.8-1.094c-6.61-3.7-11.683-4.55-19.2-3.906v2a262 262 0 0 1-5 3 82 82 0 0 0-3.988 3.793l-2.139 2.158-2.185 2.237-2.245 2.271Q348.715 151.223 346 154l-2-1 1.645-1.574c3.715-3.622 6.796-6.876 9.355-11.426h2v-2h2v-2h2v-2c5.047-4.538 10.331-6.306 17-5"/><path fill="#FAEF49" d="M257 123v1q-3.437.039-6.875.063l-3.867.035C243 124 243 124 241 123c-6.743-.355-12.653.785-19.125 2.594-2.251.488-3.705.104-5.875-.594l-1 2c-1.927.29-3.857.572-5.797.754-5.375.6-10.421 2.162-15.582 3.723-2.661.531-4.094.415-6.621-.477 22.863-8.76 45.813-12.061 70-8"/><path fill="#FAF057" d="m271.188 370.875 2.73.055L276 371c-21.998 11.787-52.877 7.624-76 2v-1c10.558-.185 10.558-.185 15 1v2c18.674.22 38.757-4.578 56.188-4.125"/><path fill="#FAF15B" d="M116 204c1.179 3.455.795 5.62-.18 9.102-4.9 18.784-5.845 36.563-5.82 55.898h-1c-2.698-22.983.018-43.078 7-65"/><path fill="#FAEE39" d="M200 237c4.2 1.381 6.63 3.264 9.723 6.395l2.63 2.646 2.71 2.772 2.72 2.736c6.665 6.743 6.665 6.743 9.363 10.2 1.968 2.39 2.836 2.928 5.854 3.251v2c-4.517.366-4.517.366-6.812-1.375C225 264 225 264 225 262l-1.773-.777c-2.42-1.329-3.959-2.788-5.852-4.786-2.42-2.577-2.42-2.577-5.375-4.437v-3l-1.734-.715c-2.768-1.57-4.435-3.447-6.516-5.847l-2.14-2.442C200 238 200 238 200 237"/><path fill="#FAF152" d="M322 222c0 3 0 3-2.562 5.89a362 362 0 0 1-3.438 3.36l-1.676 1.66a184 184 0 0 1-9.105 8.36c-5.157 4.468-9.92 9.322-14.719 14.167l-2.781 2.795Q284.356 261.613 281 265l-2-3c3.54-3.704 6.608-6.365 11-9 3.184-2.782 5.646-4.938 7-9h3l1-4h3l1-4 1.798-.316c2.541-.79 3.595-1.729 5.436-3.625l1.739-1.768 1.777-1.853 1.824-1.866A864 864 0 0 0 322 222"/><path fill="#FAF267" d="M154 348c5.377.422 8.003 1.424 12 5l2.625 1.563C171 356 171 356 172.207 357.34c2.632 2.437 5.708 3.994 8.856 5.66l2.018 1.079c4.598 2.394 9.095 4.163 14.161 5.35L199 370l1 2c-5.947.61-9.832-1.388-15-4l-1.843-.912c-10.36-5.15-20.1-10.853-29.157-18.088z"/><path fill="#FAEE36" d="m382 159 4 1q-4.902 4.94-9.814 9.87-1.665 1.672-3.329 3.348c-5.601 5.645-11.173 11.258-17.253 16.395-1.653 1.382-1.653 1.382-3.192 3.069C351 194 351 194 349 194c1.52-3.868 3.798-5.438 7-8 1.793-1.953 3.511-3.961 5.238-5.973 3.868-4.45 7.656-8.016 12.762-11.027 3.374-3.053 5.83-6.001 8-10"/><path fill="#FBEC13" d="m364 135 2 1c-3.317 4.25-6.852 7.712-10.95 11.207-3.174 2.776-6.102 5.78-9.05 8.793l-5 5-1.45 1.477c-1.486 1.46-3.017 2.807-4.613 4.148-4.735 4.024-9.33 8.204-13.937 12.375l-2-1 1.513-1.405q3.404-3.169 6.8-6.345c.785-.73 1.57-1.46 2.38-2.21l2.295-2.15 2.11-1.967c1.954-1.875 1.954-1.875 3.465-4.104C339 158 339 158 342 157c1.728-1.627 3.36-3.286 5-5q2.1-2.107 4.207-4.207l2.275-2.275z"/><path fill="#FAF263" d="M206 345c4.71.374 9.324.835 13.957 1.77 11.447 2.3 21.472 2.242 33.043.23l1 2c-8.499 1.705-16.594 2.258-25.25 2.125l-3.45-.027A1243 1243 0 0 1 217 351l-1-3-3.312.188C209 348 209 348 207.27 346.488z"/><path fill="#FAEC1D" d="M111 231h1c-.01.708-.02 1.416-.032 2.145-.178 13.954.002 27.656 1.594 41.527.43 3.805.52 7.501.438 11.328-6.582-9.873-5.251-22.745-4.75-34.062q.082-2.39.16-4.78.082-2.284.168-4.568l.08-2.134c.146-3.266.37-6.323 1.342-9.456"/><path fill="#F9EF4B" d="M163 178h2c-1.296 2.823-2.706 4.965-4.8 7.25-3.23 3.68-5.83 7.584-8.387 11.75l-1.288 2.04c-2.605 4.197-4.691 8.372-6.525 12.96h-1c.414-9.117 5.576-17.832 11-25l2-1 1-3 3-1a499 499 0 0 0 3-4"/><path fill="#FAF262" d="m198 235 2 2-2.773.367-3.602.508-3.586.492c-3.135.363-3.135.363-5.039 2.633h-3c-2.816 6.787-3.369 12.689-3 20-3.437-2.926-3.705-5.354-4.082-9.703.117-3.286 1.33-5.565 3.082-8.297h2l1-3h2v-2c5.238-2.205 9.21-3.579 15-3"/><path fill="#FAF26B" d="M125 312c3 1 3 1 4.75 4.5l1.023 2.176c2.824 5.35 6.66 10.256 11.415 14.012 3.053 2.51 4.708 4.986 6.812 8.312 1.618 2.047 3.302 4.019 5 6-12.796-5.947-22.387-20.979-29-33z"/><path fill="#FAED21" d="M330 283c1.104 3.312.881 4.647.188 8l-.52 2.625C329 296 329 296 327 299h-2l-.062 2.438c-1.338 5.08-4.314 8.796-7.938 12.562h-2v2l-2-1 1.68-1.941c4.195-5.01 6.921-8.7 8.32-15.059l1.406-1.836c1.866-2.534 2.757-4.945 3.781-7.914l1.043-2.984z"/><path fill="#FAF15C" d="M315 182c0 3 0 3-2.344 5.672a284 284 0 0 1-3.156 3.078l-1.667 1.634a211 211 0 0 1-10.821 9.82c-3.444 3.075-6.612 6.43-9.813 9.757C285 214 285 214 282 215v-2c1.434-1.41 1.434-1.41 3.438-3.062 5.628-4.786 11.446-9.764 15.562-15.938h2l.75-1.805c1.442-2.532 2.878-3.654 5.25-5.32 2.191-1.555 4.096-2.97 6-4.875"/><path fill="#FAEF4A" d="M200 156c-3.576 2.979-7.516 4.773-11.687 6.75-5.78 2.794-10.827 5.775-15.711 10C171 174 171 174 169 174l1-4h4v-3h4v-2l5-2v-2a388 388 0 0 1 5.125-2.5l2.883-1.406c3.204-1.171 5.61-1.295 8.992-1.094"/><path fill="#FAEE38" d="m155 150 2 1-1.875 1.75c-1.938 2.052-3.025 3.684-4.125 6.25h-2c-.235.562-.47 1.124-.71 1.703-1.597 2.843-3.58 4.778-5.915 7.047l-2.477 2.422L138 172l-3-1a1683 1683 0 0 1 3.313-4.312l1.863-2.426c1.532-1.9 2.98-3.666 4.824-5.262h2v-2c1.75-1.727 1.75-1.727 4-3.625l2.25-1.914z"/><path fill="#FBF46E" d="m314 347 4 2c-17.548 13-17.548 13-21 13 .313-1.875.313-1.875 1-4 3-2 3-2 6-2l1-3c5.257-4 5.257-4 9-4z"/><path fill="#FBEC14" d="m301 197 2 1q-3.994 4.037-8 8.063l-2.254 2.279c-4.206 4.224-8.486 8.283-13.02 12.154-2.363 2.059-4.544 4.254-6.726 6.504l-2-1 1.715-1.645 2.223-2.167 2.214-2.145c2.056-1.998 2.056-1.998 2.848-5.043l2.57-1.207c4.612-2.41 7.72-5.76 11.305-9.48l2.086-2.127A913 913 0 0 0 301 197"/><path fill="#FAF058" d="M114 286c3.297 1.648 3.758 4.67 5 8v4h3c2.04 4.93 3.407 8.58 3 14-6-7.397-9.423-16.696-11-26"/><path fill="#FBF261" d="m320 165 3 1-1.137 1.32-1.55 1.805-1.665 1.922a90 90 0 0 0-2.984 3.719c-1.866 2.448-3.363 4.091-6.164 5.422-2.5-.188-2.5-.188-5.187-2.438C302 175 302 175 300 172c2.622 1.049 3.794 1.65 5.25 4.125L306 178l6-1 .125-2.187c1.258-4.043 3.545-5.246 6.875-7.813z"/><path fill="#FAEF3E" d="m178 253 2 3a2368 2368 0 0 0 6.223 8.406C188 267 188 267 189 270c-2.187.438-2.187.438-5 0-5.033-5.262-5.842-9.855-6-17"/><path fill="#FBF360" d="m278 217 2 1-1.68 1.61-2.195 2.14-2.18 2.11c-1.84 2.024-2.764 3.71-3.945 6.14-1.621 1.922-1.621 1.922-3.437 3.75l-1.81 1.86C263 237 263 237 260 237c1.426-3.259 3.167-5.402 5.695-7.89l2.168-2.15 2.262-2.21 2.285-2.258q2.788-2.753 5.59-5.492"/><path fill="#FAEF41" d="M332 331h2c-1.438 3.31-3.225 5.439-5.812 7.938l-2.145 2.09L324 343a808 808 0 0 0-3 3l-2 2-1-3c1.328-1.937 1.328-1.937 3.25-4l1.89-2.062L325 337l1.547-1.75C328 334 328 334 331 334z"/><path fill="#FAEF3F" d="M315 149c4.945 2.627 8.878 6.266 13 10-.742 3.781-.742 3.781-3.062 5.75L323 166l-1-3h2c-3.537-6.96-3.537-6.96-9-12z"/><path fill="#FAF25B" d="M293 135c4.56 1.632 8.553 3.955 12.688 6.438l2.048 1.197c3.188 1.906 5.176 3.233 7.264 6.365-12.42-3.938-12.42-3.938-14.125-7.062L300 140c-2.457-1.233-2.457-1.233-5-2l-2-1z"/><path fill="#FAF049" d="m344 209 2 1q-1.402 1.909-2.812 3.813l-1.583 2.144C340 218 340 218 338.312 219.469c-1.807 2.109-1.618 3.488-1.5 6.219l.083 2.449L337 230c-2.592-2.285-2.996-2.982-3.812-6.562.094-4.622 2.65-6.785 5.812-9.938 1.648-1.52 3.31-3.027 5-4.5"/><path fill="#FAF051" d="M154 348c5.377.422 8.003 1.424 12 5l2.75 1.563C171 356 171 356 172 359c-4.77-.503-8.02-2.768-11.812-5.5l-1.811-1.262A152 152 0 0 1 154 349z"/><path fill="#FAF154" d="M354 294h2c-.616 4.96-2.798 8.937-5.062 13.313l-1.143 2.244Q348.405 312.28 347 315c-1.16-3.478-.708-5.459 0-9h3l.438-3.375C351 299 351 299 352 297h2z"/><path fill="#FAF050" d="M147 296c3.076 3.767 5.96 7.644 8.75 11.625l1.246 1.734C160 313.651 160 313.651 160 317l-3-2v-2l-3-1c-1.57-2.25-1.57-2.25-3.125-5-1.68-3.19-1.68-3.19-3.875-6a100 100 0 0 1 0-5"/><path fill="#FAF25F" d="M353 201c1.887.66 1.887.66 4 2 1.082 2.496 1.082 2.496 1.813 5.438l.769 2.933C360 214 360 214 359 217c-2.722-2.722-3.106-5.295-4-9v-4l-2.25 1.375A89 89 0 0 1 346 209v-2c1.531-1.508 1.531-1.508 3.5-3.125l1.969-1.633z"/><path fill="#FAF051" d="M389 138c2.923 2.923 2.907 5.191 3.375 9.25-.49 4.892-2.532 7.84-5.375 11.75-1.333-2.667-.671-4.167 0-7h2z"/><path fill="#FAF262" d="M180 333q5.659 2.432 11.313 4.875l3.248 1.395 3.115 1.347 2.872 1.238C203 343 203 343 206 345c-7.12-.389-11.91-2.041-18.062-5.562l-2.334-1.288A545 545 0 0 1 180 335z"/><path fill="#F9EF46" d="M139 278c3.276 1.638 3.865 5.174 5.125 8.438l.84 2.103C147 293.719 147 293.719 147 296h-3c-5.74-11.337-5.74-11.337-5-18"/><path fill="#FAED25" d="M321 220h2c-1.321 2.932-2.746 4.987-5.04 7.234l-1.757 1.739-1.828 1.777-1.852 1.824Q310.268 234.793 308 237l-2-2 3.063-2.5c4.078-3.48 7.484-7.413 10.937-11.5z"/><path fill="#FBF577" d="M186 270c2.25.125 2.25.125 5 1 .913 1.319 1.812 2.65 2.621 4.035 3.154 4.494 7.442 8.163 11.379 11.965-3 0-3 0-4.594-1.27l-1.691-1.757-1.858-1.9-1.92-2.01a1606 1606 0 0 0-3.785-3.903l-1.687-1.761c-1.433-1.505-1.433-1.505-3.465-2.399z"/><path fill="#FAF155" d="M275 128c4.49.587 8.225 1.764 12.375 3.563l3.21 1.378L293 134v1c-6.93.77-11.898-1.91-18-5z"/><path fill="#FAF258" d="M345 315c0 3.975-1.469 5.39-3.812 8.563l-2.145 2.94C337 329 337 329 334 331l1-5h2l1-4h3v-5z"/><path fill="#FAEC1C" d="M197 344q2.157.174 4.313.375l2.425.21C206 345 206 345 209 347c2.324.394 4.658.735 7 1v3l-11-2v-2l-9-1z"/><path fill="#FAF159" d="M139 331c3.54 1.452 5.24 3.257 7.5 6.313.9 1.198.9 1.198 1.816 2.421L150 342c1.33 1.67 2.66 3.339 4 5-5.89-2.701-11.418-6.858-14-12.937z"/><path fill="#FAF044" d="M315 182c0 3 0 3-2.625 5.918a350 350 0 0 1-3.375 3.27l-1.734 1.693c-1.416 1.38-2.84 2.75-4.266 4.119l-2-1c2.728-4.774 5.7-7.548 10.195-10.703 1.926-1.31 1.926-1.31 3.805-3.297"/><path fill="#FAF050" d="M361 276c-.51 6.437-1.73 11.96-4 18h-1q.214-2.844.438-5.687c.08-1.056.162-2.112.246-3.2.282-2.783.582-5.414 1.316-8.113 2-1 2-1 3-1"/><path fill="#FAF154" d="M281 160c4.389.665 7.981 2.188 12 4v2l2.938.75L299 168c.875 2.125.875 2.125 1 4-2.361-1.05-4.149-2.127-6.125-3.812-3.985-3.033-8.363-5.05-12.875-7.188z"/><path fill="#FCEC13" d="m355 204-1 4-1-2-9 9-1-3a533 533 0 0 1 4.313-4l2.425-2.25C352 204 352 204 355 204"/><path fill="#FAF25D" d="m134 172 1 2a136 136 0 0 1-3 7h-2l-.812 2.438L128 186l-3 1c1.388-3.89 3.215-6.966 5.625-10.312l1.914-2.676z"/><path fill="#FAEC1E" d="M145 336h2v2h2a281 281 0 0 1 5 5 206 206 0 0 0 5 4l-1 2c-3.737-.552-5.224-1.961-7.625-4.812-.59-.688-1.18-1.375-1.79-2.083-1.484-1.971-2.567-3.863-3.585-6.105"/><path fill="#FAED27" d="M278 263h2c-1.587 3.903-4.134 6.335-7.125 9.25l-2.758 2.703L268 277l-1-3h2v-2h2l.75-1.875c1.478-2.512 2.69-2.886 5.25-4.125z"/><path fill="#FAF051" d="m169 140 2 1c-4.333 4.925-7.47 7.8-14 9 3.7-3.925 7.55-6.946 12-10"/><path fill="#FAED28" d="M299 170c2.375.25 2.375.25 5 1 1.313 2.063 1.313 2.063 2 4l6-1v3l-6 1-1.812-2.312c-1.658-2.036-3.291-3.886-5.188-5.688"/><path fill="#FAF05A" d="m382 159 4 1-13 13c0-3 0-3 1.207-4.43l1.606-1.445c2.627-2.485 4.482-4.904 6.187-8.125"/><path fill="#FAF36F" d="m321 302 1 3a71 71 0 0 1-4.812 6c-3.79 4.345-3.79 4.345-7.188 9h-2c1.29-2.75 2.71-5.079 4.602-7.453l1.484-1.875 1.539-1.922 1.563-1.969Q319.09 304.387 321 302"/><path fill="#FAED27" d="M220 258c2.25.188 2.25.188 5 1a210 210 0 0 1 4 5c2.13.87 2.13.87 4 1v2c-4.517.366-4.517.366-6.812-1.375C225 264 225 264 225 262l-1.937-.875C221 260 221 260 220 258"/><path fill="#FAEC19" d="m195.75 236.938 2.422.027L200 237l2 4-1.758-.508c-5.131-1.338-8.255-1.759-13.242.508l-2.875 1.125L182 243v-2c4.572-3.175 8.25-4.143 13.75-4.062"/><path fill="#FAF15D" d="M124 187c.824 2.357 1.152 3.578.293 5.965l-1.106 1.972c-1.603 2.97-3 5.896-4.187 9.063h-2c.755-3.863 2.395-7.202 4.063-10.75l1.66-3.547z"/><path fill="#FAF04C" d="M216 150v1h-5v3l-11 2c4.343-5.791 8.976-6.343 16-6"/><path fill="#FAF25E" d="m205 125 1 2c-12.353 5.662-12.353 5.662-19 4z"/><path fill="#FAF153" d="M291 365c-2.242 2.242-4.007 2.963-6.937 4.125l-2.653 1.07C279 371 279 371 276 371v-2h4v-2c3.634-2.326 6.77-2.163 11-2"/><path fill="#FAEE31" d="m314 347 4 2c-5.625 3-5.625 3-9 3l-1 3-4-1a300 300 0 0 1 3.313-2.5l1.863-1.406C311 349 311 349 314 349z"/><path fill="#FAED26" d="M359 182h2c-1.47 3.399-3.38 5.65-6 8.25l-2.125 2.14C351 194 351 194 349 194c1.506-3.833 3.803-5.504 7-8l1.688-2.25z"/><path fill="#FAEF48" d="M161 317c4.445 2.992 7.848 5.587 11 10l-6-2v-2l-4-1z"/><path fill="#FAF15F" d="m109 270 3 1c1.692 5.164 2.225 9.596 2 15-2.207-3.31-2.783-5.82-3.625-9.687-.26-1.18-.52-2.36-.79-3.575z"/><path fill="#F9EE33" d="m283 214 2 1-12 12-2-1 1.715-1.645 2.223-2.167 2.214-2.145c2.056-1.998 2.056-1.998 2.848-5.043z"/><path fill="#FAF268" d="M187 133a677 677 0 0 1-6.312 3.563l-1.803 1.037c-1.588.878-3.235 1.646-4.885 2.4l-3-1q2.404-1.474 4.813-2.937l2.707-1.653c4.698-2.67 4.698-2.67 8.48-1.41"/><path fill="#FAF046" d="M288 336v3c-3.089 2.06-3.71 2.239-7.187 2.125L277 341c2.87-2.87 6.863-5 11-5"/><path fill="#FAF261" d="M213 296c5.684 2.247 7.798 5.01 11 10a56.5 56.5 0 0 1-7-4v-2h-2v-2h-2z"/><path fill="#FAF056" d="m258 123 16 4v1a601 601 0 0 1-5.75-.375c-1.067-.07-2.135-.14-3.234-.21-2.818-.388-4.599-.972-7.016-2.415z"/><path fill="#FBEC15" d="M183 337c3.389.689 6.18 1.987 9.25 3.563l2.703 1.378L197 343v1c-4.257.355-6.347-.495-9.812-2.937l-2.395-1.653L183 338z"/><path fill="#FBF470" d="m306 320 2 1-1.46 1.426c-.633.622-1.264 1.245-1.915 1.887l-1.898 1.863c-1.908 1.912-1.908 1.912-3.727 4.824h-3v-2c1.68-1.656 1.68-1.656 3.875-3.5 2.115-1.79 4.165-3.54 6.125-5.5"/><path fill="#FAEF3A" d="M121 298c3.267 3.267 3.957 6.832 4.125 11.375L125 312c-2.682-3.077-3.42-5.197-3.687-9.25l-.2-2.703z"/><path fill="#FAF160" d="M330 283c1.344 4.031.453 6.056-1 10-2.125 2.438-2.125 2.438-4 4 1.543-4.72 3.078-9.417 5-14"/><path fill="#FBF367" d="M315 149c4.09 2.285 7.464 4.957 11 8l-2 2v-2l-2.375-.25C319 156 319 156 317.813 154l-.813-2-2-1z"/><path fill="#F9EE35" d="M162 352c4.43 1.208 6.981 2.517 10 6-1.687.813-1.687.813-4 1-2.512-2.161-4.51-4.02-6-7"/><path fill="#FAEF3B" d="m329 292 1 2c-1.312 2.625-1.312 2.625-3 5h-2l-1 3h-2c1.394-4.435 3.606-6.874 7-10"/><path fill="#FAF25C" d="m142 162 1 2c-.996 1.945-.996 1.945-2.437 4.125l-1.434 2.195L138 172l-3-1z"/><path fill="#FAEF3F" d="m301 356 3 1a141 141 0 0 1-5 5h-2c.313-1.875.313-1.875 1-4z"/><path fill="#FAEC20" d="M221 302c3.806.672 7.352 1.727 11 3v1c-5.373.352-5.373.352-8 0-2-2-2-2-3-4"/><path fill="#FAED2F" d="M141 287c5.571 5.143 5.571 5.143 6 9h-3c-3-5.625-3-5.625-3-9"/><path fill="#FAEC19" d="m159 149 2 1-3 1-.937 1.938c-1.297 2.517-2.485 3.03-5.063 4.062 1.491-3.795 3.757-5.61 7-8"/><path fill="#FAEF40" d="M338 322c.813 1.688.813 1.688 1 4-2.437 2.75-2.437 2.75-5 5l1-5h2z"/><path fill="#F9EF4F" d="M172 327c6.875 3.75 6.875 3.75 8 6-2.875-.187-2.875-.187-6-1-1.375-2.562-1.375-2.562-2-5"/><path fill="#FAEF3D" d="M382 159c2.063.438 2.063.438 4 1a91 91 0 0 1-4 4h-2c.875-3.875.875-3.875 2-5"/></svg>