<svg width="347" height="63" viewBox="0 0 347 63" fill="none" xmlns="http://www.w3.org/2000/svg">
<rect width="158" height="63" rx="7.05881" fill="url(#paint0_linear_43_17)"/>
<path d="M23.1166 19.4557V38.3765C23.1166 40.6872 23.6468 42.4407 24.707 43.6368C25.7944 44.8058 27.3847 45.3902 29.478 45.3902C31.5712 45.3902 33.1479 44.8058 34.2082 43.6368C35.2956 42.4407 35.8393 40.6872 35.8393 38.3765V19.4557H39.2646V38.3765C39.2646 41.6931 38.3947 44.2213 36.6548 45.9611C34.915 47.701 32.5227 48.5709 29.478 48.5709C26.4332 48.5709 24.0409 47.701 22.3011 45.9611C20.5612 44.2213 19.6913 41.6931 19.6913 38.3765V19.4557H23.1166ZM64.9669 48H61.7862V33.4832C61.7862 32.5317 61.5688 31.7569 61.1338 31.1588C60.6988 30.5336 60.0056 30.221 59.0541 30.221C58.157 30.221 57.423 30.5608 56.8522 31.2404C56.3085 31.8928 56.0366 32.9123 56.0366 34.2987V48H52.8559V33.3201C52.8559 32.423 52.6113 31.689 52.122 31.1181C51.6326 30.52 50.9802 30.221 50.1646 30.221C49.186 30.221 48.4248 30.5744 47.8811 31.2812C47.3646 31.988 47.1063 32.9123 47.1063 34.0541V48H43.9257V27.7743H47.1063V29.9763H47.5956C47.949 29.0248 48.4656 28.3316 49.1452 27.8966C49.8248 27.4345 50.6268 27.2034 51.5511 27.2034C52.5297 27.2034 53.3317 27.4617 53.9569 27.9782C54.6094 28.4947 55.0579 29.1607 55.3026 29.9763H55.7919C56.7162 28.1277 58.1842 27.2034 60.1959 27.2034C61.7183 27.2034 62.8872 27.6927 63.7028 28.6714C64.5455 29.6229 64.9669 30.8734 64.9669 32.423V48ZM85.1642 44.5747H84.6749C84.0225 45.9339 83.1118 46.9398 81.9428 47.5922C80.801 48.2447 79.5913 48.5709 78.3136 48.5709C76.9815 48.5709 75.7446 48.3534 74.6028 47.9184C73.4611 47.4563 72.4552 46.7903 71.5853 45.9203C70.7426 45.0232 70.0765 43.9358 69.5872 42.6581C69.0979 41.3804 68.8532 39.8988 68.8532 38.2134V37.5609C68.8532 35.9026 69.0979 34.4346 69.5872 33.1569C70.0765 31.8792 70.7426 30.8054 71.5853 29.9355C72.4552 29.0384 73.4611 28.3588 74.6028 27.8966C75.7446 27.4345 76.9544 27.2034 78.232 27.2034C79.6185 27.2034 80.869 27.516 81.9836 28.1413C83.1254 28.7394 84.0225 29.6773 84.6749 30.955H85.1642V27.7743H88.3449V43.8407C88.3449 44.6562 88.7119 45.064 89.4459 45.064H90.4653V48H88.3041C87.3798 48 86.6186 47.701 86.0206 47.1029C85.4497 46.5048 85.1642 45.7436 85.1642 44.8193V44.5747ZM78.6398 45.5533C79.5913 45.5533 80.4612 45.3766 81.2496 45.0232C82.0651 44.6698 82.7584 44.1669 83.3293 43.5145C83.9001 42.862 84.3487 42.0872 84.6749 41.1901C85.0011 40.2658 85.1642 39.2464 85.1642 38.1318V37.6425C85.1642 36.5551 85.0011 35.5628 84.6749 34.6657C84.3487 33.7414 83.8865 32.9531 83.2885 32.3006C82.7176 31.6482 82.0244 31.1453 81.2088 30.7918C80.4204 30.4113 79.5641 30.221 78.6398 30.221C77.6883 30.221 76.8184 30.3977 76.0301 30.7511C75.2417 31.1045 74.5485 31.6074 73.9504 32.2598C73.3795 32.8851 72.931 33.6599 72.6047 34.5842C72.2785 35.4813 72.1154 36.4735 72.1154 37.5609V38.2134C72.1154 40.5241 72.7135 42.3319 73.9096 43.6368C75.133 44.9145 76.7097 45.5533 78.6398 45.5533ZM101.732 21.7392C101.732 20.9508 102.004 20.2848 102.548 19.7411C103.119 19.1702 103.798 18.8848 104.587 18.8848C105.375 18.8848 106.041 19.1702 106.585 19.7411C107.156 20.2848 107.441 20.9508 107.441 21.7392C107.441 22.5276 107.156 23.2072 106.585 23.7781C106.041 24.3218 105.375 24.5936 104.587 24.5936C103.798 24.5936 103.119 24.3218 102.548 23.7781C102.004 23.2072 101.732 22.5276 101.732 21.7392ZM95.942 45.064H103.037V30.7103H96.676V27.7743H106.218V45.064H112.824V48H95.942V45.064ZM119.279 27.7743H126.619V30.4656H127.108C127.625 29.351 128.359 28.5355 129.31 28.019C130.262 27.4753 131.349 27.2034 132.573 27.2034C134.612 27.2034 136.256 27.8694 137.507 29.2015C138.757 30.5336 139.423 32.4773 139.505 35.0327L136.161 35.522C136.161 33.6463 135.713 32.3006 134.815 31.4851C133.918 30.6423 132.817 30.221 131.512 30.221C130.67 30.221 129.936 30.3841 129.31 30.7103C128.712 31.0365 128.209 31.4851 127.802 32.056C127.394 32.6268 127.095 33.2929 126.905 34.0541C126.714 34.8152 126.619 35.6308 126.619 36.5007V45.064H131.757V48H118.79V45.064H123.438V30.7103H119.279V27.7743Z" fill="black"/>
<path d="M186.206 27.6927C186.206 26.7685 186.016 25.9529 185.635 25.2461C185.282 24.5393 184.793 23.9548 184.167 23.4927C183.542 23.0305 182.822 22.6771 182.006 22.4324C181.191 22.1878 180.334 22.0654 179.437 22.0654C178.649 22.0654 177.901 22.1742 177.194 22.3917C176.488 22.582 175.849 22.8674 175.278 23.248C174.734 23.6286 174.299 24.1043 173.973 24.6752C173.647 25.2189 173.484 25.8578 173.484 26.5918V26.8364C173.484 27.6248 173.647 28.3044 173.973 28.8753C174.299 29.419 174.775 29.8947 175.4 30.3025C176.053 30.6831 176.855 31.0093 177.806 31.2812C178.758 31.5258 179.872 31.7433 181.15 31.9336C184.14 32.3958 186.342 33.2793 187.756 34.5842C189.169 35.8619 189.876 37.5881 189.876 39.7629V40.2523C189.876 41.4756 189.659 42.6038 189.224 43.6368C188.816 44.6426 188.191 45.5126 187.348 46.2466C186.532 46.9806 185.513 47.5514 184.29 47.9592C183.066 48.367 181.653 48.5709 180.049 48.5709C178.227 48.5709 176.61 48.3126 175.196 47.7961C173.81 47.2524 172.641 46.5184 171.689 45.5941C170.765 44.6426 170.058 43.5416 169.569 42.2911C169.08 41.0134 168.835 39.627 168.835 38.1318V36.9085H172.26V37.8872C172.26 40.3882 172.94 42.2639 174.299 43.5145C175.686 44.765 177.602 45.3902 180.049 45.3902C182.169 45.3902 183.76 44.9281 184.82 44.0038C185.907 43.0523 186.451 41.8018 186.451 40.2523V40.0076C186.451 38.5124 185.894 37.3706 184.779 36.5823C183.692 35.7939 181.911 35.223 179.437 34.8696C177.996 34.6793 176.691 34.3939 175.523 34.0133C174.381 33.6055 173.402 33.089 172.587 32.4637C171.771 31.8113 171.146 31.0365 170.711 30.1394C170.276 29.2423 170.058 28.1821 170.058 26.9587V26.4694C170.058 25.3548 170.289 24.3354 170.752 23.4111C171.214 22.4868 171.853 21.6848 172.668 21.0052C173.511 20.3256 174.503 19.8091 175.645 19.4557C176.814 19.0751 178.092 18.8848 179.478 18.8848C181.082 18.8848 182.509 19.1159 183.76 19.578C185.037 20.0401 186.111 20.6654 186.981 21.4538C187.851 22.215 188.503 23.1257 188.938 24.1859C189.401 25.2189 189.632 26.3063 189.632 27.4481V29.1607H186.206V27.6927ZM198.697 48H195.516V19.4557H198.697V31.4443H199.186C199.811 30.1394 200.681 29.1064 201.796 28.3452C202.938 27.584 204.324 27.2034 205.955 27.2034C208.157 27.2034 209.938 27.9374 211.297 29.4054C212.683 30.8462 213.377 33.021 213.377 35.9298V48H210.196V36.5823C210.196 34.4618 209.72 32.8715 208.769 31.8113C207.817 30.7511 206.526 30.221 204.895 30.221C202.965 30.221 201.442 30.887 200.328 32.2191C199.24 33.5239 198.697 35.2774 198.697 37.4794V48ZM235.164 44.5747H234.675C234.022 45.9339 233.112 46.9398 231.943 47.5922C230.801 48.2447 229.591 48.5709 228.314 48.5709C226.982 48.5709 225.745 48.3534 224.603 47.9184C223.461 47.4563 222.455 46.7903 221.585 45.9203C220.743 45.0232 220.077 43.9358 219.587 42.6581C219.098 41.3804 218.853 39.8988 218.853 38.2134V37.5609C218.853 35.9026 219.098 34.4346 219.587 33.1569C220.077 31.8792 220.743 30.8054 221.585 29.9355C222.455 29.0384 223.461 28.3588 224.603 27.8966C225.745 27.4345 226.954 27.2034 228.232 27.2034C229.618 27.2034 230.869 27.516 231.984 28.1413C233.125 28.7394 234.022 29.6773 234.675 30.955H235.164V27.7743H238.345V43.8407C238.345 44.6562 238.712 45.064 239.446 45.064H240.465V48H238.304C237.38 48 236.619 47.701 236.021 47.1029C235.45 46.5048 235.164 45.7436 235.164 44.8193V44.5747ZM228.64 45.5533C229.591 45.5533 230.461 45.3766 231.25 45.0232C232.065 44.6698 232.758 44.1669 233.329 43.5145C233.9 42.862 234.349 42.0872 234.675 41.1901C235.001 40.2658 235.164 39.2464 235.164 38.1318V37.6425C235.164 36.5551 235.001 35.5628 234.675 34.6657C234.349 33.7414 233.887 32.9531 233.288 32.3006C232.718 31.6482 232.024 31.1453 231.209 30.7918C230.42 30.4113 229.564 30.221 228.64 30.221C227.688 30.221 226.818 30.3977 226.03 30.7511C225.242 31.1045 224.548 31.6074 223.95 32.2598C223.38 32.8851 222.931 33.6599 222.605 34.5842C222.279 35.4813 222.115 36.4735 222.115 37.5609V38.2134C222.115 40.5241 222.713 42.3319 223.91 43.6368C225.133 44.9145 226.71 45.5533 228.64 45.5533ZM250.672 36.1745H251.365L259.072 27.7743H262.987V28.019L254.587 37.2755V38.0095L263.966 47.7553V48H260.051L251.447 39.1105H250.672V48H247.492V19.4557H250.672V36.1745ZM289.505 38.1318C289.505 39.8173 289.219 41.3125 288.649 42.6174C288.105 43.8951 287.371 44.9825 286.447 45.8796C285.522 46.7495 284.435 47.4155 283.184 47.8777C281.961 48.3398 280.683 48.5709 279.351 48.5709C277.992 48.5709 276.701 48.3398 275.477 47.8777C274.254 47.4155 273.18 46.7495 272.256 45.8796C271.332 44.9825 270.584 43.8951 270.013 42.6174C269.469 41.3125 269.198 39.8173 269.198 38.1318V37.6425C269.198 35.9842 269.469 34.5162 270.013 33.2385C270.584 31.9336 271.332 30.8326 272.256 29.9355C273.207 29.0384 274.295 28.3588 275.518 27.8966C276.741 27.4345 278.019 27.2034 279.351 27.2034C280.683 27.2034 281.961 27.4345 283.184 27.8966C284.408 28.3588 285.481 29.0384 286.406 29.9355C287.357 30.8326 288.105 31.9336 288.649 33.2385C289.219 34.5162 289.505 35.9842 289.505 37.6425V38.1318ZM279.351 45.5533C280.33 45.5533 281.227 45.3902 282.043 45.064C282.885 44.7106 283.619 44.2077 284.245 43.5552C284.87 42.9028 285.359 42.128 285.713 41.2309C286.066 40.3066 286.243 39.2736 286.243 38.1318V37.6425C286.243 36.5551 286.066 35.5628 285.713 34.6657C285.359 33.7414 284.87 32.9531 284.245 32.3006C283.619 31.6482 282.885 31.1453 282.043 30.7918C281.2 30.4113 280.303 30.221 279.351 30.221C278.4 30.221 277.503 30.4113 276.66 30.7918C275.817 31.1453 275.083 31.6482 274.458 32.3006C273.833 32.9531 273.343 33.7414 272.99 34.6657C272.637 35.5628 272.46 36.5551 272.46 37.6425V38.1318C272.46 39.2736 272.637 40.3066 272.99 41.2309C273.343 42.128 273.833 42.9028 274.458 43.5552C275.083 44.2077 275.804 44.7106 276.619 45.064C277.462 45.3902 278.373 45.5533 279.351 45.5533ZM314.473 38.1318C314.473 39.8173 314.188 41.3125 313.617 42.6174C313.073 43.8951 312.339 44.9825 311.415 45.8796C310.491 46.7495 309.403 47.4155 308.153 47.8777C306.929 48.3398 305.652 48.5709 304.32 48.5709C302.96 48.5709 301.669 48.3398 300.446 47.8777C299.222 47.4155 298.149 46.7495 297.224 45.8796C296.3 44.9825 295.552 43.8951 294.981 42.6174C294.438 41.3125 294.166 39.8173 294.166 38.1318V37.6425C294.166 35.9842 294.438 34.5162 294.981 33.2385C295.552 31.9336 296.3 30.8326 297.224 29.9355C298.176 29.0384 299.263 28.3588 300.486 27.8966C301.71 27.4345 302.988 27.2034 304.32 27.2034C305.652 27.2034 306.929 27.4345 308.153 27.8966C309.376 28.3588 310.45 29.0384 311.374 29.9355C312.326 30.8326 313.073 31.9336 313.617 33.2385C314.188 34.5162 314.473 35.9842 314.473 37.6425V38.1318ZM304.32 45.5533C305.298 45.5533 306.195 45.3902 307.011 45.064C307.854 44.7106 308.588 44.2077 309.213 43.5552C309.838 42.9028 310.327 42.128 310.681 41.2309C311.034 40.3066 311.211 39.2736 311.211 38.1318V37.6425C311.211 36.5551 311.034 35.5628 310.681 34.6657C310.327 33.7414 309.838 32.9531 309.213 32.3006C308.588 31.6482 307.854 31.1453 307.011 30.7918C306.168 30.4113 305.271 30.221 304.32 30.221C303.368 30.221 302.471 30.4113 301.628 30.7918C300.786 31.1453 300.052 31.6482 299.426 32.3006C298.801 32.9531 298.312 33.7414 297.958 34.6657C297.605 35.5628 297.428 36.5551 297.428 37.6425V38.1318C297.428 39.2736 297.605 40.3066 297.958 41.2309C298.312 42.128 298.801 42.9028 299.426 43.5552C300.052 44.2077 300.772 44.7106 301.587 45.064C302.43 45.3902 303.341 45.5533 304.32 45.5533ZM319.216 27.7743H326.556V30.4656H327.045C327.562 29.351 328.296 28.5355 329.247 28.019C330.199 27.4753 331.286 27.2034 332.509 27.2034C334.548 27.2034 336.193 27.8694 337.443 29.2015C338.694 30.5336 339.36 32.4773 339.442 35.0327L336.098 35.522C336.098 33.6463 335.649 32.3006 334.752 31.4851C333.855 30.6423 332.754 30.221 331.449 30.221C330.606 30.221 329.872 30.3841 329.247 30.7103C328.649 31.0365 328.146 31.4851 327.738 32.056C327.331 32.6268 327.032 33.2929 326.841 34.0541C326.651 34.8152 326.556 35.6308 326.556 36.5007V45.064H331.694V48H318.726V45.064H323.375V30.7103H319.216V27.7743Z" fill="#FFFF00"/>
<defs>
<linearGradient id="paint0_linear_43_17" x1="59.9372" y1="63" x2="100.191" y2="1.39021" gradientUnits="userSpaceOnUse">
<stop stop-color="#FFFF00"/>
<stop offset="0.480909" stop-color="#FFFF00"/>
<stop offset="0.940909" stop-color="white"/>
</linearGradient>
</defs>
</svg>
